<?xml version="1.0" encoding="utf-8"?>
<!-- Generator: Adobe Illustrator 26.0.1, SVG Export Plug-In . SVG Version: 6.00 Build 0)  -->
<svg version="1.1" id="Layer_1" xmlns="http://www.w3.org/2000/svg" xmlns:xlink="http://www.w3.org/1999/xlink" x="0px" y="0px"
	 viewBox="0 0 494 505" style="enable-background:new 0 0 494 505;" xml:space="preserve">
<style type="text/css">
	.st0{fill:#F37C36;}
	.st1{fill:#6986F1;}
</style>
<path class="st0" d="M381.2,121.2h4.5l3.5,0.5l3.5,1.8l2,2.2l0.5,1.2l0.2,1.5v2.8L395,134l-2,4.5l-1.8,3l-2.5,3.2l-3,3.2l-5.2,5.2
	l-2,1.8l-2.5,2.2l-3,2.8l-2.8,2.2l-3,2.5l-2.2,1.8l-4.2,3.5l-3.2,2.8l-3.8,3l-4,3l-6.5,5l-3.8,3l-3.5,2.5l-4.8,3.5l-4.5,3.2
	l-3.8,2.8l-1.8,2.2l-0.8,2.2v2.2l1,4l2.5,8.8l2.2,7.5l4.8,17l5.2,18.5l3.5,12l3.8,13l3.8,13.5l0.2,1v2.2l-1.5,3l-1.8,1.5l-4,2
	l-2.5,1h-2.2l-2.2-2l-2.2-2.8l-3.5-4.2l-1.8-2l-2.8-3l-2.2-2.8l-2.8-3.2l-2.2-2.8l-3-3.5l-2.2-2.5l-3-3.5l-2.8-3.2l-3-3.5l-2.2-2.8
	l-2.8-3.2l-3-3.5l-2.2-2.5l-2.2-2.8l-2-2.2l-2.8-3.5l-2.8-3l-1.8-2l-3-3.5l-2.8-3.2l-1.2,0.2l-8.5,4.5l-7.2,4l-6.2,3.2l-5.5,3.2
	L239,258l-8,4.2l-10.8,6l-7,3.8l-5.5,3l-7,3.8l-4,2.2l-6,3.2l0.2,3.8l3.5,16.8l2.2,10.8l0.2,2l-1.2,1.2l-1.5,1.2l-3.8,1.8l-2,0.5
	l-2.5-1.5l-2.5-2.2l-2.5-2l-2.5-2.2l-2.8-2.2l-3.8-3.2l-3.5-3l-2.8-2.2L163,301l-2.8-2.2l-1-0.8h-1.8l-9.8,2.8L145,301l-1-1.2
	l-0.5-0.8l0.2-1.2l2.8-5l1.2-2.5v-1l-19.8-8.5l-7.2-3.2l-7.5-3.2l-6.2-2.8l-7.5-3.2l-4-1.8l-1-0.5l0.5-1l2-1.2l4.2-1.5l3.5-0.5h3.8
	l7.8,0.8l12,1.5l13.8,1.8l3.5,0.5l-2.5-5.8l-5-9.5l-0.5-1.5l0.2-1.8l1.2-2.2l2.8-2l5-3h2.5L160,244l10.2,3.5l9.5,3.2l4.5,1.5l4.2-3
	l8-6l3.5-2.5l4.5-3.5l3.5-2.5l5-3.5l4.8-3.5l3-2.2l4-3.2l0.8-0.5v-0.5l-5.8-2.8l-9-4l-5.8-2.8l-5-2.2l-6.8-3l-10-4.5l-4.5-2l-6.2-3
	l-7.2-3.2l-8.8-4l-6.8-3l-6.2-3l-7.2-3.2l-8.8-4l-5.8-2.5l-7.2-3.5l-6.2-2.8l-10-4.5l-2.2-1.5l-0.2-1.8l1-1.5l2.5-2l3.5-2l3.5-1.2
	h4.5l18.5,3.2l12.5,2.2l5.8,1.2l18.5,3.2l19.8,3.5l16,2.8l16.5,3l16.2,3l17,3l19.8,3.5l3.5,0.5h3l3.2-1l3.2-1.8l3.5-2.5l4.8-3.5
	l3.2-2.5l2.5-1.8l4.5-3.2l4.8-3.5l4-2.8l3.2-2.5l4.5-3.2l3.5-2.5l4-2.8l3-2.2l3.5-2.8l4.2-3l5-3.5l3.5-2.5l5-3.5l6.5-3.5l5.8-2.5
	l7.5-2.5l5.5-1.2L381.2,121.2z"/>
<path class="st1" d="M303.2,295.8l1.2,0.8l2.8,3l2.2,2.8l2.2,2.5l2.8,3.5l2.2,2.5l2.2,2.8l3.2,3.8l2.8,3.2l1.5,1.8l3.2,2.2l3.2,1.5
	l2.2,0.5h5.5l4.5-1l-1.5,2.8l-2,3.2l-2.5,4.2l-3.5,5.5l-3,5.2l-2.2,3.8l-4.8,8l-3,4.8l-1.8,2.8l-1.5,2.8l-4.2,7.2l-2.2,3.8l-2.8,4.5
	l-4.2,7l-12,20l-4.2,7.2l-2,3.2l-4.2,7.2l-3,4.8l-2.8,4.5l-1.8,2.8l-1.5,2.8l-2,3.2l-6,10l-4.2,7.2l-3.2,5.5l-2.2,3l-2,2l-3.5,1.8
	l-1.8,0.5h-5.8l-3-1l-2.5-1.5L236,472l-2.5-3.8l-4-7l-6.8-11.2l-4.2-7.2l-2.5-4.2l-3.2-5.5l-4.8-8l-6-10l-3.8-6.5l-2.8-4.5l-3.5-6
	l-4.2-7.2l-2.2-3.8l-2.5-4.2l-2.5-4l-2.5-4.5l-2.5-4.2l-4.2-7l-3.8-6.2l-4.8-8l-3.2-5.8l-1.2-2h-1.5l-7.5,3.2l-7.5,3.5l-10.8,4.8
	l-12.5,5.5l-4.8,2.2l-6.5,2.8l-4.8,2.2l-6.2,2.8l-6,2.8l-6.2,3l-9.8,4.2l-8.8,4l-6.8,3.2l-6,2.8l-5,2.2l-6,2.8l-1.5,0.5V393l4.2-2.5
	l2.5-1.8l4.8-3.2l4.5-3l10-6.5l4.2-2.8l8.5-6l5.2-3.5l3.5-2.2l4-2.8l6.8-4.5l5-3.2l6-4l2.8-2l4-2.5L135,330l7.8-5.2l3.8-2.5l4.2-3
	l3.5-2.5l2.8-1.2l2.2,1.5l2.5,2.2l3.5,3.2l2.8,2.2l2.5,2l7,6l4,3l3.5,1.8l2.5,0.8l2,0.2h2.2l4.2-1l4.2-1.8l5-2.8l2.2-1.8l1.8-1.8
	l1.8-2.5l1.2-2.5l0.8-2.5l0.2-1.8v-3L212,311l-0.8-2.8v-1.8l2.2,0.5l8.2,2.5l7.2,1.5l6.8,1l7,0.5h6.8l8.2-0.5l9-1.5l6.5-1.5l8.2-2.8
	l7.2-3l7.2-3.5l5-2.8l1.5-1L303.2,295.8z"/>
<path class="st1" d="M440.2,57.8L441,58l-5.5,3.5L424.2,69l-4.8,3l-4.2,3l-5,3.2l-4.8,3.2l-10.8,7.2l-3,2l-5.8,4l-6.2,4L369,106
	l-4.2,2.8l-4,2.8l-7.5,5l-5.5,3.8l-3.8,2.5l-6.5,4.2l-3.8,2.5l-8.5,6l-1.2,0.8l-1.2-0.2l-2.5-2.2l-2.2-2.5l-3-2.8l-3.5-2.8l-4-3
	l-5.8-4l-5.5-3.2l-5.5-2.8l-7.2-3l-7.5-2.5l-6.2-1.8l-8.2-1.5l-7.2-0.8L250,103h-8.5l-8.5,0.8l-7.5,1.2l-5.2,1.2l-10.2,3.2l-5.5,2.2
	l-6.2,3l-5.5,3l-2.5,1.8l-4,2.8l-4.5,3.2l-3.5,3l-2.5,2.2l-1.2,1.2H174l-0.5,1l-6,6l-2.2,2.8l-2.8,3.5l-1.5,2.2l-1.2,1.2l-9-1.5
	l-8.8-1.8l-13.2-2.5l-9.8-1.5l-1.2-0.5l-0.2-0.5l2.5-4.8l2-3.2l3.8-6l5.2-7l3.2-4l2.2-2.8l2.2-2.5l0.2-0.5h0.5l0.5-1l3.2-3.2
	l0.5-0.8h0.5l0.5-1l2-1.8l2-2l2-1.8l3.2-2.8l3.5-2.8l3.8-3l5.8-4l7-4.2l5.8-3.2l4-2l6-2.8l7.8-3l9-2.8l7.5-2l7.2-1.5l6.2-1l8.2-0.8
	l4.8-0.2h13l8.8,0.5l8.2,1l9,1.8l8.5,2.2l9,3l7.2,3l6.5,3l5.2,2.8l3.2,2l5,3L331,89l4.2,3.2l4.8,3.5l3.5,2.8l2,1.5l1.8-0.2l4.2-2
	l5.8-2.5l7.8-3.8l7-3l5-2.2l9.2-4l5-2.2l3.8-1.8l9-4l5-2.2l9-4l4-1.8l3-1.5l8.2-3.8L440.2,57.8z"/>
<path class="st1" d="M386.5,170.2h0.5l1,3.8l2,10.8l0.8,5l1,10.5V216l-1,10.5l-1.5,9.2l-2,9l-3,10l-2.8,7l-4,9l-2.8,5.5l-3.2,5.8
	l-2.2,4l-1.2,1.8l-1.2,2.2l-3.8,6.2h-0.8l-1.2-4.8l-2-7.5l-1.8-6.2l-2.8-9.5L352,260l-3-10.8l-2-7.2l-0.2-1v-3.2l2.2-9.5l0.8-4.2
	l1-10l0.2-15.2l1.8-1.5l4.2-3l4.5-3.5l3.2-2.5l4.2-3.2l3.5-3l2.8-2.2l6.5-5.5l2-1.8L386.5,170.2z"/>
<path class="st1" d="M103.5,182.5l1.2,0.2L125,192l6.8,3l8.8,4l1.8,1l0.2,1l-0.2,3.5v7l0.8,9.8l0.8,5.2v2l-6,3l-3,2l-2.5,2l-2.5,2.2
	l-2.5,3.8l-1.2,2.8l-1.5,5.8l-0.2,0.5l-10-1.2l-6.2-0.5l-0.8-0.2l-1-2.5l-2-9l-1.2-6.8l-1-6.5l-0.5-6.2l-0.2-6.2v-6l0.5-10.2
	l0.8-7.8l0.8-4.5L103.5,182.5z"/>
<path class="st1" d="M143.2,307.8l1.5,0.2l2.8,1.5l-1,1.2l-4.8,3l-4.2,2.8l-7.2,5l-5.5,3.5l-4.8,3.2l-5.5,3.8l-3.8,2.5l-7,4.8l-3,2
	l-4.2,2.8l-4.2,3l-4.5,3.2l-8.2,5.5l-0.5-0.2l4.8-3.5l3.2-2.2l4.5-3.2l3.5-2.8l4-3l3.5-2.5l5.2-4l4.8-3.5l4.2-3.2l4.8-3.5l4-3
	l4.8-3.5l4.2-3.2l5.2-4l2.5-1.8L143.2,307.8z"/>
<path class="st1" d="M78.5,356"/>
<path class="st1" d="M78.8,355.8"/>
</svg>
