<?xml version="1.0" encoding="UTF-8"?>
<svg version="1.1" viewBox="0 0 2000 2000" width="500" height="500" xmlns="http://www.w3.org/2000/svg">
<path transform="translate(1300,489)" d="m0 0h16l11 4 5 5 3 6v10l-4 12-8 13-9 10-7 8-8 7-10 9-11 9-14 12-16 13-13 10-18 14-16 12-19 14-11 9-4 8 1 9 10 36 10 35 7 25 12 42 17 59 3 11v8l-4 6-5 4-8 4-5 2-6-1-7-7-9-11-12-14-9-11-13-15-12-14-9-11-11-12-9-11-12-14-13-15-12-14-7-8v-2l-6 1-12 7-11 6-23 12-18 10-26 14-18 10-28 15-22 12-18 10-7 4 2 14 9 40 3 15v7l-8 5-7 3h-6l-6-4-10-9-11-9-15-13-10-9-10-8-6-1-21 6-6 1-4-6 3-7 6-11-1-3-8-4-25-11-21-9-27-12-28-12-8-4 1-3 11-5 6-2h17l78 10-8-17-7-15-2-5 1-7 5-5 10-6 6-3 10 2 41 14 29 10 5-1 16-12 17-12 13-10 14-10 20-15 9-7 1-2-28-13-36-16-33-15-35-16-48-22-58-26-35-16-16-8-2-2 1-5 8-7 13-6h12l41 7 62 11 180 32 72 13 14 2 9-1 12-6 15-11 54-39 17-12 8-6 18-13 16-12 13-9 13-8 15-8 22-8 16-4z" fill="#FDFDFC"/>
<path transform="translate(1126,882)" d="m0 0 4 1 8 8 9 11 10 11 11 14 13 14 9 6 11 3h12l9-1-7 11-11 19-15 25-17 29-17 28-14 23-24 40-17 28-13 22-17 28-19 32-12 20-13 21-7 8-7 4-4 1h-15l-10-5-8-8-14-24-15-25-29-49-45-76-13-22-9-15-16-27-17-29-14-24-8 1-21 9-29 13-22 10-113 51-35 16-23 11-12 5-2-1 132-88 44-29 11-8 16-10 31-21 15-10 10-7 5 1 14 12 13 11 8 7 13 11 8 5 10 3h12l13-4 15-8 6-5h2l2-4 5-9 2-8v-10l-5-21v-2l9 2 20 6 19 3 21 2h25l26-3 19-4 16-5 21-8 27-14z" fill="#6D88F0"/>
<path transform="translate(1430,349)" d="m0 0 3 1-10 8-16 10-192 128-16 11-18 12-5 4-6-1-10-10-8-7-11-9-15-10-21-12-25-11-28-8-22-4-11-1h-39l-22 3-21 5-19 6-16 7-16 8-19 12-16 12-10 9-4 2v2h-2l-2 4-10 10-10 13-6 8-3 1-58-11-35-6 1-5 10-17 8-12 10-14 13-16 7-8 3-4h2l2-4h2l2-4 8-7 9-8 11-9 13-10 18-12 21-12 21-10 21-8 26-8 31-6 36-4h29l32 3 25 4 26 7 25 9 24 11 24 14 17 11 19 14 14 11 4 1 26-12 25-11 26-12 81-36 40-18z" fill="#6D88F0"/>
<path transform="translate(1024,1406)" d="m0 0h53l23 2 29 5 13 3 1 3-10 19-12 21-9 16-3 1-5-1h-20l2 5 9 8 13 10 16 8 11 7 8 8 7 11 3 11v20l-4 16-7 13-11 12-7 6-19 10-15 5-23 5-31 4-17 1h-20l-27-2-28-4-26-7-3-2 1-5 14-27 9-16 5-10 5 1 20 6 13 2-4-7v-14l-5-4-15-6-8-4-14-12-7-10-4-10-2-10v-14l3-16 4-12 8-11 8-9 10-7 17-9 21-6 18-3z" fill="#FEFEFD"/>
<path transform="translate(548,1412)" d="m0 0h94l3 8 15 51 13 45 6 17h2l8-24 20-69 7-25 2-3h91l1 4-15 36-12 30-15 38-13 33-15 38-11 28-4 9-2 1h-90l-3-3-7-18-13-34-19-49-14-36-17-44-11-28z" fill="#FEFEFD"/>
<path transform="translate(1279,1412)" d="m0 0h232l2 7 4 45 1 7v9l-1 1h-78v147l-59 1h-30l-1-2v-146h-77l-1-1v-9l4-33 3-24z" fill="#FEFEFD"/>
<path transform="translate(817,1412)" d="m0 0h90l1 9-1 206-1 1h-89l-1-2v-213z" fill="#FEFEFD"/>
<path transform="translate(1167,1412)" d="m0 0h85l5 1v215l-6 1h-83l-1-8z" fill="#FEFEFD"/>
<path transform="translate(1314,600)" d="m0 0 3 1 5 25 5 49v16l-2 26-3 24-5 23-7 25-11 28-14 28-9 15-14 22-3-3-14-51-10-34-9-31-1-5v-7l6-26 3-20 1-40 4-5 12-9 10-8 13-10 22-18 14-12z" fill="#6D88F0"/>
<path transform="translate(679,627)" d="m0 0 10 4 35 16 26 12 16 8v31l3 25 1 5-5 5-15 9-9 7-6 7-5 11-4 12-17-1-18-2-4-2-5-17-5-29-2-19v-49l3-32z" fill="#6D88F0"/>
<path transform="translate(975,1545)" d="m0 0h8l24 4 36 4 6 2 3 7-2 7-9 4-14 2h-19l-25-2-2-2-1-4-2-3v-14l-3-3z" fill="#6D88F0"/>
<path transform="translate(1048,1467)" d="m0 0h23l24 4 8 2v1l-19 1 2 5 9 8 13 10 2 2-11-1-27-5-31-3-13-3-5-4v-7l5-5 7-3z" fill="#6D88F0"/>
<path transform="translate(768,909)" d="m0 0h5l3 2v4l-36 24-16 10-10 7-12 8-20 14-41 28-7 5-2-1 17-13 14-10 12-9 38-28 21-16 13-10 19-14z" fill="#708AF0"/>
<path transform="translate(653,994)" d="m0 0m-1 1m-1 1m-2 1h2l-1 3-16 11-2-1z" fill="#6D88F0"/>
<path transform="translate(631,1011)" d="m0 0" fill="#6D88F0"/>
</svg>
